<svg width="37" height="37" viewBox="0 0 37 37" fill="none" xmlns="http://www.w3.org/2000/svg">
<path d="M0 36.9495L3.39022 29.1418C0.796522 25.4599 -0.364362 20.958 0.125427 16.481C0.615216 12.004 2.72201 7.85968 6.05043 4.82571C9.37885 1.79173 13.7001 0.0767154 18.2032 0.00251237C22.7063 -0.0716906 27.0817 1.50002 30.5082 4.42269C33.9348 7.34535 36.177 11.4181 36.814 15.8765C37.4511 20.3349 36.4391 24.8726 33.9682 28.6379C31.4972 32.4032 27.737 35.1373 23.3933 36.3272C19.0496 37.517 14.421 37.0808 10.3761 35.1003L0 36.9495Z" fill="#F2E8CC"/>
<path d="M12.3281 14.3481C12.3281 14.6206 12.4363 14.8819 12.629 15.0746C12.8216 15.2672 13.0829 15.3755 13.3554 15.3755C13.6279 15.3755 13.8892 15.2672 14.0818 15.0746C14.2745 14.8819 14.3827 14.6206 14.3827 14.3481V12.2935C14.3827 12.021 14.2745 11.7597 14.0818 11.567C13.8892 11.3743 13.6279 11.2661 13.3554 11.2661C13.0829 11.2661 12.8216 11.3743 12.629 11.567C12.4363 11.7597 12.3281 12.021 12.3281 12.2935V14.3481ZM12.3281 14.3481C12.3281 17.0728 13.4104 19.6859 15.3371 21.6125C17.2637 23.5391 19.8768 24.6215 22.6015 24.6215M22.6015 24.6215H24.6561C24.9286 24.6215 25.1899 24.5133 25.3826 24.3206C25.5752 24.128 25.6835 23.8666 25.6835 23.5942C25.6835 23.3217 25.5752 23.0604 25.3826 22.8677C25.1899 22.6751 24.9286 22.5668 24.6561 22.5668H22.6015C22.329 22.5668 22.0677 22.6751 21.875 22.8677C21.6824 23.0604 21.5741 23.3217 21.5741 23.5942C21.5741 23.8666 21.6824 24.128 21.875 24.3206C22.0677 24.5133 22.329 24.6215 22.6015 24.6215Z" stroke="#236130" stroke-width="4" stroke-linecap="round" stroke-linejoin="round"/>
</svg>
