<svg width="47" height="36" viewBox="0 0 47 36" fill="none" xmlns="http://www.w3.org/2000/svg">
<path d="M0 10.2857C0 7.55777 1.08367 4.94156 3.01262 3.01262C4.94156 1.08367 7.55777 0 10.2857 0H36C38.7279 0 41.3442 1.08367 43.2731 3.01262C45.202 4.94156 46.2857 7.55777 46.2857 10.2857V25.7143C46.2857 28.4422 45.202 31.0584 43.2731 32.9874C41.3442 34.9163 38.7279 36 36 36H10.2857C7.55777 36 4.94156 34.9163 3.01262 32.9874C1.08367 31.0584 0 28.4422 0 25.7143V10.2857Z" fill="#F2E8CC"/>
<path d="M18.0001 10.2856L30.8572 17.9999L18.0001 25.7142V10.2856Z" fill="#236130"/>
</svg>
