<svg width="74" height="88" viewBox="0 0 74 88" fill="none" xmlns="http://www.w3.org/2000/svg">
<path d="M3.20982 78.4701L23.4194 64.997L33.5242 48.1557L36.8925 24.5779M36.8925 24.5779L50.3655 38.0509L70.5751 38.0509M36.8925 24.5779L13.3146 27.9461L3.20982 44.7875M41.9449 56.5764L50.3655 64.997L57.1021 85.2066M36.8925 4.36827C35.9992 5.26159 35.4973 6.47319 35.4973 7.73653C35.4973 8.99988 35.9992 10.2115 36.8925 11.1048C37.7858 11.9981 38.9974 12.5 40.2607 12.5C41.5241 12.5 42.7357 11.9981 43.629 11.1048C44.5223 10.2115 45.0242 8.99988 45.0242 7.73653C45.0242 6.47319 44.5223 5.26159 43.629 4.36827C42.7357 3.47495 41.5241 2.97309 40.2607 2.97309C38.9974 2.97309 37.7858 3.47495 36.8925 4.36827Z" stroke="#99BD05" stroke-width="5" stroke-linecap="round" stroke-linejoin="round"/>
</svg>
