<svg width="36" height="36" viewBox="0 0 36 36" fill="none" xmlns="http://www.w3.org/2000/svg">
<path d="M0 35.9509L3.29859 28.3541C0.774994 24.7718 -0.354514 20.3916 0.122037 16.0356C0.598589 11.6796 2.64844 7.64726 5.8869 4.69528C9.12536 1.74331 13.3298 0.074642 17.7112 0.00244447C22.0926 -0.0697531 26.3497 1.45948 29.6837 4.30315C33.0177 7.14683 35.1992 11.1095 35.8191 15.4474C36.4389 19.7853 35.4543 24.2003 33.0501 27.8639C30.6459 31.5274 26.9874 34.1877 22.7611 35.3454C18.5348 36.5031 14.0313 36.0786 10.0957 34.1517L0 35.9509Z" fill="white"/>
<path d="M11.9951 13.9603C11.9951 14.2254 12.1004 14.4797 12.2879 14.6671C12.4753 14.8546 12.7296 14.9599 12.9947 14.9599C13.2598 14.9599 13.514 14.8546 13.7015 14.6671C13.889 14.4797 13.9943 14.2254 13.9943 13.9603V11.9612C13.9943 11.6961 13.889 11.4418 13.7015 11.2544C13.514 11.0669 13.2598 10.9616 12.9947 10.9616C12.7296 10.9616 12.4753 11.0669 12.2879 11.2544C12.1004 11.4418 11.9951 11.6961 11.9951 11.9612V13.9603C11.9951 16.6114 13.0482 19.1538 14.9228 21.0284C16.7974 22.9029 19.3398 23.9561 21.9908 23.9561H23.99C24.2551 23.9561 24.5093 23.8507 24.6968 23.6633C24.8843 23.4758 24.9896 23.2216 24.9896 22.9565C24.9896 22.6914 24.8843 22.4371 24.6968 22.2497C24.5093 22.0622 24.2551 21.9569 23.99 21.9569H21.9908C21.7257 21.9569 21.4715 22.0622 21.284 22.2497C21.0966 22.4371 20.9913 22.6914 20.9913 22.9565C20.9913 23.2216 21.0966 23.4758 21.284 23.6633C21.4715 23.8507 21.7257 23.9561 21.9908 23.9561" fill="white"/>
<path d="M11.9951 13.9603C11.9951 14.2254 12.1004 14.4797 12.2879 14.6671C12.4753 14.8546 12.7296 14.9599 12.9947 14.9599C13.2598 14.9599 13.514 14.8546 13.7015 14.6671C13.889 14.4797 13.9943 14.2254 13.9943 13.9603V11.9612C13.9943 11.6961 13.889 11.4418 13.7015 11.2544C13.514 11.0669 13.2598 10.9616 12.9947 10.9616C12.7296 10.9616 12.4753 11.0669 12.2879 11.2544C12.1004 11.4418 11.9951 11.6961 11.9951 11.9612V13.9603ZM11.9951 13.9603C11.9951 16.6114 13.0482 19.1538 14.9228 21.0284C16.7974 22.9029 19.3398 23.9561 21.9908 23.9561M21.9908 23.9561H23.99C24.2551 23.9561 24.5093 23.8507 24.6968 23.6633C24.8843 23.4758 24.9896 23.2216 24.9896 22.9565C24.9896 22.6914 24.8843 22.4371 24.6968 22.2497C24.5093 22.0622 24.2551 21.9569 23.99 21.9569H21.9908C21.7257 21.9569 21.4715 22.0622 21.284 22.2497C21.0966 22.4371 20.9913 22.6914 20.9913 22.9565C20.9913 23.2216 21.0966 23.4758 21.284 23.6633C21.4715 23.8507 21.7257 23.9561 21.9908 23.9561Z" stroke="#DE3891" stroke-width="4" stroke-linecap="round" stroke-linejoin="round"/>
</svg>
