<svg width="118" height="87" viewBox="0 0 118 87" fill="none" xmlns="http://www.w3.org/2000/svg">
<path d="M15.459 71.5215C15.459 74.8257 16.7716 77.9946 19.108 80.331C21.4444 82.6674 24.6133 83.98 27.9174 83.98C31.2216 83.98 34.3905 82.6674 36.7269 80.331C39.0633 77.9946 40.3759 74.8257 40.3759 71.5215C40.3759 68.2173 39.0633 65.0485 36.7269 62.7121C34.3905 60.3756 31.2216 59.063 27.9174 59.063C24.6133 59.063 21.4444 60.3756 19.108 62.7121C16.7716 65.0485 15.459 68.2173 15.459 71.5215ZM77.7513 71.5215C77.7513 74.8257 79.0639 77.9946 81.4003 80.331C83.7367 82.6674 86.9056 83.98 90.2097 83.98C93.5139 83.98 96.6828 82.6674 99.0192 80.331C101.356 77.9946 102.668 74.8257 102.668 71.5215C102.668 68.2173 101.356 65.0485 99.0192 62.7121C96.6828 60.3756 93.5139 59.063 90.2097 59.063C86.9056 59.063 83.7367 60.3756 81.4003 62.7121C79.0639 65.0485 77.7513 68.2173 77.7513 71.5215Z" stroke="#99BD05" stroke-width="5" stroke-linecap="round" stroke-linejoin="round"/>
<path d="M15.4585 71.5215H3V34.1462M3 34.1462L15.4585 3H71.5215L96.4385 34.1462M3 34.1462H96.4385M96.4385 34.1462H102.668C105.972 34.1462 109.141 35.4587 111.477 37.7952C113.814 40.1316 115.126 43.3004 115.126 46.6046V71.5215H102.668M77.7508 71.5215H40.3754M59.0631 34.1462V3" stroke="#99BD05" stroke-width="5" stroke-linecap="round" stroke-linejoin="round"/>
</svg>
