<svg width="122" height="87" viewBox="0 0 122 87" fill="none" xmlns="http://www.w3.org/2000/svg">
<path d="M14.5684 72.4115C14.5684 75.4796 15.7872 78.4222 17.9567 80.5917C20.1262 82.7612 23.0688 83.98 26.1369 83.98C29.2051 83.98 32.1476 82.7612 34.3171 80.5917C36.4867 78.4222 37.7055 75.4796 37.7055 72.4115C37.7055 69.3433 36.4867 66.4008 34.3171 64.2313C32.1476 62.0617 29.2051 60.8429 26.1369 60.8429C23.0688 60.8429 20.1262 62.0617 17.9567 64.2313C15.7872 66.4008 14.5684 69.3433 14.5684 72.4115ZM83.9798 72.4115C83.9798 75.4796 85.1986 78.4222 87.3681 80.5917C89.5377 82.7612 92.4802 83.98 95.5484 83.98C98.6165 83.98 101.559 82.7612 103.729 80.5917C105.898 78.4222 107.117 75.4796 107.117 72.4115C107.117 69.3433 105.898 66.4008 103.729 64.2313C101.559 62.0617 98.6165 60.8429 95.5484 60.8429C92.4802 60.8429 89.5377 62.0617 87.3681 64.2313C85.1986 66.4008 83.9798 69.3433 83.9798 72.4115Z" stroke="#99BD05" stroke-width="5" stroke-linecap="round" stroke-linejoin="round"/>
<path d="M14.5686 72.4114H3V8.78429C3 7.2502 3.60941 5.77894 4.69418 4.69418C5.77894 3.60942 7.2502 3 8.78429 3H89.7643C97.4347 3 104.791 7.2659 110.215 14.8592C115.639 22.4526 118.686 32.7514 118.686 43.49V72.4114H107.117M83.98 72.4114H37.7057" stroke="#99BD05" stroke-width="5" stroke-linecap="round" stroke-linejoin="round"/>
<path d="M83.98 3L92.6564 43.49H118.686M3 31.9214H89.7643M31.9214 3V31.9214M60.8429 3V31.9214" stroke="#99BD05" stroke-width="5" stroke-linecap="round" stroke-linejoin="round"/>
</svg>
