<svg width="69" height="65" viewBox="0 0 69 65" fill="none" xmlns="http://www.w3.org/2000/svg">
<ellipse cx="6.4566" cy="9.38763" rx="6.4566" ry="9.38763" transform="matrix(0.961332 -0.275392 0.300226 0.953868 0 11.8624)" fill="black"/>
<ellipse cx="6.48031" cy="9.35021" rx="6.48031" ry="9.35021" transform="matrix(0.999346 0.0361655 -0.0397299 0.99921 21.9762 0)" fill="black"/>
<ellipse cx="6.36173" cy="9.5346" rx="6.36173" ry="9.5346" transform="matrix(0.785784 0.618501 -0.654128 0.756384 49.4612 4.98853)" fill="black"/>
<ellipse cx="6.28692" cy="9.6474" rx="6.28692" ry="9.6474" transform="matrix(0.604789 0.796386 -0.822622 0.568589 61.3955 21.2749)" fill="black"/>
<path d="M44.1006 52.7797C42.1349 60.7371 35.2488 62.8833 23.9904 60.7371C17.0712 59.4181 5.4718 53.3876 7.74526 44.1842C10.7485 33.6283 21.942 25.097 32.2234 27.4086C41.2554 29.1043 46.8572 41.6206 44.1006 52.7797Z" fill="black"/>
<path d="M19.9164 41.3189V36.6442L22.7616 39.3585C25.5633 38.9666 27.2 39.0052 30.1907 39.3585L32.2456 36.6442V40.8665C36.2205 46.4972 35.3366 48.8609 28.452 51.7241C30.8935 55.176 31.9294 61.526 31.9294 61.526C28.2651 61.526 23.2771 61.0689 20.7831 59.8793C20.7831 58.2931 22.4458 53.5345 24.0261 51.7241C16.8599 48.7122 16.0165 46.4178 19.9164 41.3189Z" fill="white"/>
</svg>
