<svg width="92" height="89" viewBox="0 0 92 89" fill="none" xmlns="http://www.w3.org/2000/svg">
<path fill-rule="evenodd" clip-rule="evenodd" d="M36.0568 0.130862C32.5687 1.04428 29.5542 4.7533 28.4419 9.49986C28.2156 10.4662 28.0285 12.4944 28.0263 14.0072C28.0197 18.4949 29.1541 21.8195 31.5683 24.3872C33.3313 26.2625 34.8652 27.0107 36.939 27.0072C42.3006 26.9981 46.5426 20.8335 46.5426 13.0511C46.5426 7.53301 44.3479 2.80181 40.9168 0.923461C39.4784 0.136067 37.3578 -0.209958 36.0568 0.130862ZM68.0315 11.4998C63.4395 12.8335 59.2237 16.3535 56.6741 20.9825C54.745 24.4847 54.3364 28.5458 55.6424 31.2312C57.6162 35.289 62.2289 36.1044 67.7866 33.3775C70.7567 31.9203 74.6163 28.0124 76.1606 24.8987C79.7408 17.6798 77.4968 11.504 71.1911 11.2215C70.1425 11.1746 68.7208 11.2998 68.0315 11.4998ZM4.72485 14.6478C3.25466 15.3198 1.48323 17.3982 0.761479 19.2984C-0.071668 21.4913 -0.247612 25.4554 0.365196 28.2261C1.85827 34.9767 7.00886 40.4337 11.8879 40.4342C20.7385 40.4353 22.3541 25.4984 14.3786 17.408C12.2371 15.2357 9.95388 14.1313 7.61976 14.1393C6.47149 14.1431 5.42863 14.3264 4.72485 14.6478ZM80.9623 35.346C78.991 35.7981 75.7003 37.2808 73.8932 38.5315C71.9946 39.8457 69.6556 42.3022 68.5427 44.1512C65.8393 48.6427 66.2494 52.9684 69.5902 55.1941C71.1614 56.241 72.1871 56.4698 75.1403 56.4325C79.5809 56.3763 84.0713 54.2596 87.808 50.4607C90.5926 47.6301 91.7853 45.3394 91.9683 42.4706C92.1198 40.0972 91.7442 38.8101 90.4935 37.4178C88.6436 35.3581 84.6737 34.4951 80.9623 35.346ZM35.5044 39.0603C32.4883 39.3939 29.4946 40.3263 26.2519 41.9416C18.0269 46.0391 11.2517 53.7607 8.42812 62.2557C5.52777 70.9826 10.1816 78.8072 21.6133 84.4233C26.7617 86.9529 26.4455 86.9644 27.1683 84.2195C27.9075 81.4118 29.2835 78.0058 30.4119 76.1913L31.2614 74.825L28.3512 73.3256C21.5632 69.828 20.6058 66.9168 24.3701 61.2196L25.571 59.4018V56.1846V52.9676L27.6186 54.924C29.4453 56.6695 29.7465 56.8585 30.4102 56.6755C31.342 56.4185 38.5203 56.4281 39.5228 56.6876C40.2029 56.8637 40.3859 56.7177 41.7017 54.9476L43.1381 53.0155L43.2157 55.9366L43.2934 58.8574L44.6377 61.0842C48.1964 66.9782 47.1236 70.2826 40.612 73.4858L37.9192 74.8105L38.9484 76.7321C40.1433 78.9631 41.6636 83.4126 42.3551 86.7033L42.8377 89L45.0308 88.8293C53.25 88.1899 58.5558 83.8321 60.4223 76.1877C63.3442 64.2209 59.4358 50.1627 51.3111 43.4131C47.2341 40.0265 41.3694 38.4112 35.5044 39.0603Z" fill="white"/>
</svg>
