<svg width="29" height="39" viewBox="0 0 29 39" fill="none" xmlns="http://www.w3.org/2000/svg">
<path d="M2 37V32.9343C2 30.7778 2.87797 28.7096 4.44078 27.1846C6.00358 25.6597 8.1232 24.803 10.3333 24.803H18.6667C20.8768 24.803 22.9964 25.6597 24.5592 27.1846C26.122 28.7096 27 30.7778 27 32.9343V37M6.16667 10.1313C6.16667 12.2879 7.04464 14.3561 8.60744 15.881C10.1702 17.4059 12.2899 18.2626 14.5 18.2626C16.7101 18.2626 18.8298 17.4059 20.3926 15.881C21.9554 14.3561 22.8333 12.2879 22.8333 10.1313C22.8333 7.97475 21.9554 5.90652 20.3926 4.38161C18.8298 2.85669 16.7101 2 14.5 2C12.2899 2 10.1702 2.85669 8.60744 4.38161C7.04464 5.90652 6.16667 7.97475 6.16667 10.1313Z" stroke="black" stroke-width="3" stroke-linecap="round" stroke-linejoin="round"/>
</svg>
